<svg fill="none" height="80" viewBox="0 0 80 80" width="80" xmlns="http://www.w3.org/2000/svg" xmlns:xlink="http://www.w3.org/1999/xlink"><radialGradient id="a" cx="34.479" cy="27.1245" gradientUnits="userSpaceOnUse" r="36.7641"><stop offset="0" stop-color="#ffdf30"/><stop offset="1" stop-color="#ffb82e"/></radialGradient><radialGradient id="b" cx="34.479" cy="27.1245" gradientUnits="userSpaceOnUse" r="28.924"><stop offset="0" stop-color="#ffe95f"/><stop offset="1" stop-color="#ffbb47" stop-opacity="0"/></radialGradient><radialGradient id="c" cx="0" cy="0" gradientTransform="matrix(15.8006 0 0 5.69928 40.5702 64.1784)" gradientUnits="userSpaceOnUse" r="1"><stop offset="0" stop-color="#7a4400" stop-opacity=".5"/><stop offset=".6008" stop-color="#894d00" stop-opacity=".1981"/><stop offset=".995" stop-color="#965500" stop-opacity="0"/></radialGradient><linearGradient id="d"><stop offset=".00132565" stop-color="#3c2200"/><stop offset="1" stop-color="#7a4400"/></linearGradient><linearGradient id="e" gradientUnits="userSpaceOnUse" x1="27.3442" x2="27.3442" xlink:href="#d" y1="23.0612" y2="19.85"/><linearGradient id="f" gradientUnits="userSpaceOnUse" x1="53.6058" x2="53.6058" xlink:href="#d" y1="23.0612" y2="19.85"/><linearGradient id="g"><stop offset="0" stop-color="#7ceb00"/><stop offset="1" stop-color="#2f9200"/></linearGradient><radialGradient id="h" cx="0" cy="0" gradientTransform="matrix(9.80561 0 0 18.2581 40.4746 58.5024)" gradientUnits="userSpaceOnUse" r="1" xlink:href="#g"/><radialGradient id="i" cx="0" cy="0" gradientTransform="matrix(7.74787782 -6.47875987 3.92891366 4.69854472 43.3715 64.4215)" gradientUnits="userSpaceOnUse" r="1"><stop offset="0" stop-color="#fff" stop-opacity=".33"/><stop offset="1" stop-color="#fff" stop-opacity="0"/></radialGradient><linearGradient id="j"><stop offset=".00132565" stop-color="#3c2200"/><stop offset="1" stop-color="#512d00"/></linearGradient><linearGradient id="k" gradientUnits="userSpaceOnUse" x1="40.4746" x2="40.4746" xlink:href="#j" y1="39.6764" y2="52.0924"/><linearGradient id="l" gradientUnits="userSpaceOnUse" x1="40.4741" x2="40.4741" xlink:href="#g" y1="90.9562" y2="47.0718"/><linearGradient id="m" gradientUnits="userSpaceOnUse" x1="29.1344" x2="29.1344" xlink:href="#d" y1="6.58052" y2="65.5206"/><linearGradient id="n" gradientUnits="userSpaceOnUse" x1="51.8002" x2="51.8002" xlink:href="#d" y1="6.58052" y2="65.5206"/><linearGradient id="o" gradientUnits="userSpaceOnUse" x1="54.2011" x2="54.2011" xlink:href="#j" y1="23.1921" y2="33.8321"/><linearGradient id="p" gradientUnits="userSpaceOnUse" x1="52.7715" x2="52.7715" xlink:href="#j" y1="23.7494" y2="41.3629"/><linearGradient id="q" gradientUnits="userSpaceOnUse" x1="49.3251" x2="49.3251" xlink:href="#j" y1="22.697" y2="34.3642"/><linearGradient id="r" gradientUnits="userSpaceOnUse" x1="50.8829" x2="50.8829" xlink:href="#j" y1="33.7748" y2="42.014"/><linearGradient id="s" gradientUnits="userSpaceOnUse" x1="51.8113" x2="51.8113" xlink:href="#j" y1="25.2865" y2="27.0802"/><linearGradient id="t" gradientUnits="userSpaceOnUse" x1="31.5353" x2="31.5353" xlink:href="#j" y1="23.1921" y2="33.8321"/><linearGradient id="u" gradientUnits="userSpaceOnUse" x1="30.1057" x2="30.1057" xlink:href="#j" y1="23.7494" y2="41.3629"/><linearGradient id="v" gradientUnits="userSpaceOnUse" x1="26.6593" x2="26.6593" xlink:href="#j" y1="22.697" y2="34.3642"/><linearGradient id="w" gradientUnits="userSpaceOnUse" x1="28.2171" x2="28.2171" xlink:href="#j" y1="33.7748" y2="42.014"/><linearGradient id="x" gradientUnits="userSpaceOnUse" x1="29.1455" x2="29.1455" xlink:href="#j" y1="25.2865" y2="27.0802"/><linearGradient id="y" gradientUnits="userSpaceOnUse" x1="40.4677" x2="40.4677" xlink:href="#d" y1="34.1507" y2="77.9669"/><linearGradient id="z" gradientUnits="userSpaceOnUse" x1="42.5688" x2="42.5688" xlink:href="#j" y1="51.7991" y2="61.1104"/><linearGradient id="A" gradientUnits="userSpaceOnUse" x1="41.3177" x2="41.3177" xlink:href="#j" y1="52.2868" y2="67.7006"/><linearGradient id="B" gradientUnits="userSpaceOnUse" x1="38.3016" x2="38.3016" xlink:href="#j" y1="51.3658" y2="61.576"/><linearGradient id="C" gradientUnits="userSpaceOnUse" x1="39.6649" x2="39.6649" xlink:href="#j" y1="61.0602" y2="68.2705"/><linearGradient id="D" gradientUnits="userSpaceOnUse" x1="40.4774" x2="40.4774" xlink:href="#j" y1="53.632" y2="55.2017"/><path d="m40.475 69.95c16.8309 0 30.475-13.6441 30.475-30.475s-13.6441-30.475-30.475-30.475-30.475 13.6441-30.475 30.475 13.6441 30.475 30.475 30.475z" fill="url(#a)"/><path d="m40.475 69.95c16.8309 0 30.475-13.6441 30.475-30.475s-13.6441-30.475-30.475-30.475-30.475 13.6441-30.475 30.475 13.6441 30.475 30.475 30.475z" fill="url(#b)" opacity=".5"/><path d="m40.475 69.95c16.8309 0 30.475-13.6441 30.475-30.475s-13.6441-30.475-30.475-30.475-30.475 13.6441-30.475 30.475 13.6441 30.475 30.475 30.475z" fill="url(#c)"/><path d="m33.7705 21.0199c0-1.219-1.3182-1.9844-3.5861-1.9844-1.9278 0-6.1659 1.0631-9.0858 4.8193-.5387.6945.2834 1.0772.8221.6237 1.8001-1.5309 6.6053-3.4869 10.3615-3.0759 1.5025.1701 1.4883-.3827 1.4883-.3827z" fill="url(#e)"/><path d="m47.1796 21.0199c0-1.219 1.3182-1.9844 3.5861-1.9844 1.9277 0 6.1659 1.0631 9.0858 4.8193.5386.6945-.2835 1.0772-.8221.6237-1.8002-1.5309-6.6053-3.4869-10.3615-3.0759-1.5025.1701-1.4883-.3827-1.4883-.3827z" fill="url(#f)"/><path d="m40.475 59.4468c-16.0029 0-21.134-16.3148-16.258-13.7634 6.5485 3.4302 10.6875 4.4224 16.258 4.4224 5.5564 0 9.7095-.9922 16.2581-4.4224 4.876-2.5372-.2552 13.7634-16.2581 13.7634z" fill="#643800"/><path d="m50.0994 52.7706c0-.978-.9355-1.7009-1.8851-1.4174-2.268.6803-4.8477 1.0772-7.7393 1.0772s-5.4713-.411-7.7392-1.0772c-.9355-.2835-1.8852.4394-1.8852 1.4174v8.6606c0 5.3154 4.309 9.837 9.6244 9.837s9.6244-4.5216 9.6244-9.837v-2.1971z" fill="url(#h)"/><path d="m50.0994 52.7706c0-.978-.9355-1.7009-1.8851-1.4174-2.268.6803-4.8477 1.0772-7.7393 1.0772s-5.4713-.411-7.7392-1.0772c-.9355-.2835-1.8852.4394-1.8852 1.4174v8.6606c0 5.3154 4.309 9.837 9.6244 9.837s9.6244-4.5216 9.6244-9.837v-2.1971z" fill="url(#i)"/><path d="m56.7331 45.6976c-6.5486 3.4302-10.6876 4.4224-16.2581 4.4224-5.5564 0-9.7095-.9922-16.2581-4.4224-1.7009-.893-2.1828.5103-1.4174 2.7073 0-.0425.2551-2.3955 2.5514-.7796 0 0 .0142 0 .0142.0142 3.416 2.6222 8.4338 4.7909 15.1099 4.7909 6.6762 0 11.6939-2.1687 15.1099-4.7909 0 0 .0142 0 .0142-.0142 2.2963-1.6301 2.5514.7229 2.5514.7796.7654-2.197.2693-3.6003-1.4174-2.7073z" fill="url(#k)"/><path d="m40.475 52.4446c-2.8916 0-5.4713-.411-7.7392-1.0772-.9355-.2835-1.8852.4394-1.8852 1.4174v3.6428s.1134-2.3104 9.6244-2.3104c9.4969 0 9.6244 2.3104 9.6244 2.3104s0-1.9419 0-3.6428c0-.978-.9355-1.7009-1.8851-1.4174-2.268.6662-4.8477 1.0772-7.7393 1.0772z" fill="#366e0d" opacity=".5"/><path d="m40.475 52.4446c-.3402 0-.6662-.0284-.9922-.0425.0142 11.6088.4536 15.6627.9922 15.6627s.978-3.9972.9922-15.6627c-.326 0-.652.0425-.9922.0425z" fill="url(#l)" opacity=".24"/><path d="m29.7308 41.2468v1.9419h-1.1765v-1.9419c-2.3246-.2126-3.8413-1.6159-3.9689-3.6712h1.8144c.0425 1.3608 1.0914 2.1971 2.7782 2.1971 1.6584 0 2.6647-.808 2.6647-1.9844 0-1.3183-.8079-1.7293-2.2253-2.1546l-1.7718-.5102c-1.7293-.5103-3.0901-1.4742-3.0901-3.3736 0-2.0269 1.4884-3.4727 3.7988-3.6711v-1.9703h1.1765v1.9844c2.1119.241 3.501 1.6159 3.6003 3.6287h-1.7718c-.0709-1.3466-1.0631-2.197-2.6081-2.197-1.5167 0-2.438.8079-2.438 2.0553 0 1.1339.893 1.6442 2.0269 1.9702l2.197.6378c2.1829.6379 2.92 1.8994 2.92 3.4586.0283 2.0553-1.5734 3.4019-3.9263 3.6003z" fill="url(#m)"/><path d="m52.3957 41.2468v1.9419h-1.1765v-1.9419c-2.3246-.2126-3.8413-1.6159-3.9688-3.6712h1.8143c.0425 1.3608 1.0914 2.1971 2.7782 2.1971 1.6584 0 2.6648-.808 2.6648-1.9844 0-1.3183-.808-1.7293-2.2254-2.1546l-1.7718-.5102c-1.7293-.5103-3.09-1.4742-3.09-3.3736 0-2.0269 1.4883-3.4727 3.7987-3.6711v-1.9703h1.1765v1.9844c2.112.241 3.5011 1.6159 3.6003 3.6287h-1.7718c-.0709-1.3466-1.0631-2.197-2.6081-2.197-1.5167 0-2.438.8079-2.438 2.0553 0 1.1339.893 1.6442 2.0269 1.9702l2.1971.6378c2.197.6379 2.9482 1.8852 2.9482 3.4444 0 2.0695-1.6017 3.4161-3.9546 3.6145z" fill="url(#n)"/><path d="m52.3956 28.7166c1.8852.2126 3.1893 1.3466 3.5295 3.0192h.085c-.1134-2.0128-1.4883-3.3877-3.6003-3.6287v.6095z" fill="url(#o)"/><path d="m53.4162 34.1738-2.197-.6379c-1.0206-.2835-1.8568-.737-1.9986-1.6726-.0142.0993-.0283.2127-.0283.3119 0 1.1339.8929 1.6442 2.0269 1.9702l2.197.6379c1.9986.5811 2.7782 1.7009 2.9058 3.09 0-.0851.0283-.1559.0283-.241 0-1.5592-.7512-2.8065-2.9341-3.4585z" fill="url(#p)"/><path d="m51.2193 28.6883v-.6095c-2.3105.1984-3.7988 1.6442-3.7988 3.6711 0 .1134.0142.1985.0284.3119.1559-1.871 1.5875-3.1893 3.7704-3.3735z" fill="url(#q)"/><path d="m49.0647 38.1851c.0425 1.3608 1.0914 2.1971 2.7782 2.1971 1.6584 0 2.6648-.808 2.6648-1.9844 0-.1276-.0142-.241-.0284-.3544-.1417 1.0205-1.1056 1.7151-2.6364 1.7151-1.6868 0-2.7357-.8363-2.7782-2.197h-1.8143c.0141.2126.0567.411.0992.6095h1.7151z" fill="url(#r)"/><path d="m52.3957 26.1085h-1.1765v.6095h1.1765z" fill="url(#s)"/><path d="m29.7307 28.7166c1.8852.2126 3.1893 1.3466 3.5294 3.0192h.0851c-.1134-2.0128-1.4883-3.3877-3.6003-3.6287v.6095z" fill="url(#t)"/><path d="m30.7513 34.1738-2.197-.6379c-1.0206-.2835-1.8569-.737-1.9986-1.6726-.0142.0993-.0284.2127-.0284.3119 0 1.1339.893 1.6442 2.027 1.9702l2.197.6379c1.9986.5811 2.7782 1.7009 2.9058 3.09 0-.0851.0283-.1559.0283-.241 0-1.5592-.7512-2.8065-2.9341-3.4585z" fill="url(#u)"/><path d="m28.5544 28.6883v-.6095c-2.3105.1984-3.7988 1.6442-3.7988 3.6711 0 .1134.0142.1985.0284.3119.1559-1.871 1.5875-3.1893 3.7704-3.3735z" fill="url(#v)"/><path d="m26.3998 38.1851c.0425 1.3608 1.0914 2.1971 2.7782 2.1971 1.6584 0 2.6648-.808 2.6648-1.9844 0-.1276-.0142-.241-.0284-.3544-.1417 1.0205-1.1056 1.7151-2.6364 1.7151-1.6868 0-2.7357-.8363-2.7782-2.197h-1.8144c.0142.2126.0567.411.0993.6095h1.7151z" fill="url(#w)"/><path d="m29.7308 26.1085h-1.1765v.6095h1.1765z" fill="url(#x)"/><path d="m40.9852 67.5971v1.7009h-1.0205v-1.7009c-2.0411-.1843-3.3594-1.4175-3.4728-3.2176h1.5876c.0425 1.1906.9497 1.9277 2.4238 1.9277 1.46 0 2.3388-.7087 2.3388-1.7435 0-1.1623-.7087-1.5166-1.9419-1.8852l-1.545-.4535c-1.5167-.4536-2.7073-1.2899-2.7073-2.9483 0-1.7718 1.304-3.0475 3.3309-3.2176v-1.7009h1.0206v1.7434c1.8427.1984 3.0617 1.4175 3.1609 3.1751h-1.5592c-.0567-1.1765-.9355-1.9277-2.2821-1.9277-1.3324 0-2.1261.7087-2.1261 1.7859 0 .9922.7796 1.4316 1.7718 1.7151l1.9277.567c1.8994.567 2.5514 1.6584 2.5514 3.0192 0 1.8143-1.4033 2.9908-3.4586 3.1609z" fill="url(#y)"/><path d="m40.9852 56.6261c1.6585.1842 2.7924 1.1764 3.0759 2.6364h.0709c-.0993-1.7576-1.3041-2.9766-3.1609-3.1751v.5387z" fill="url(#z)"/><path d="m41.8924 61.417-1.9277-.567c-.893-.2551-1.6159-.652-1.7435-1.4599-.0142.085-.0283.1842-.0283.2835 0 .9922.7796 1.4316 1.7718 1.7151l1.9277.5669c1.7434.5103 2.438 1.4884 2.5372 2.6932 0-.0709.0142-.1418.0142-.2126 0-1.3608-.652-2.4664-2.5514-3.0192z" fill="url(#A)"/><path d="m39.9647 56.6119v-.5386c-2.0128.1701-3.331 1.4316-3.331 3.2176 0 .0992.0141.1842.0283.2693.1276-1.6301 1.3891-2.7924 3.3027-2.9483z" fill="url(#B)"/><path d="m38.0795 64.9181c.0425 1.1907.9497 1.9277 2.4238 1.9277 1.46 0 2.3388-.7087 2.3388-1.7434 0-.1134-.0142-.2126-.0284-.3118-.1275.8929-.9638 1.5024-2.3104 1.5024-1.4741 0-2.3955-.7228-2.4238-1.9277h-1.5876c.0142.1843.0426.3686.0851.5387h1.5025z" fill="url(#C)"/><path d="m40.9853 54.3582h-1.0206v.5386h1.0206z" fill="url(#D)"/></svg>